<?xml version="1.0" encoding="utf-8" standalone="no"?>
<!DOCTYPE svg PUBLIC "-//W3C//DTD SVG 1.1//EN"
  "http://www.w3.org/Graphics/SVG/1.1/DTD/svg11.dtd">
<svg xmlns:xlink="http://www.w3.org/1999/xlink" width="648pt" height="266.4pt" viewBox="0 0 648 266.4" xmlns="http://www.w3.org/2000/svg" version="1.1">
 <metadata>
  <rdf:RDF xmlns:dc="http://purl.org/dc/elements/1.1/" xmlns:cc="http://creativecommons.org/ns#" xmlns:rdf="http://www.w3.org/1999/02/22-rdf-syntax-ns#">
   <cc:Work>
    <dc:type rdf:resource="http://purl.org/dc/dcmitype/StillImage"/>
    <dc:date>2026-10-09T19:23:55.677217</dc:date>
    <dc:format>image/svg+xml</dc:format>
    <dc:creator>
     <cc:Agent>
      <dc:title>Matplotlib v3.9.2, https://matplotlib.org/</dc:title>
     </cc:Agent>
    </dc:creator>
   </cc:Work>
  </rdf:RDF>
 </metadata>
 <defs>
  <style type="text/css">*{stroke-linejoin: round; stroke-linecap: butt}</style>
 </defs>
 <g id="figure_1">
  <g id="patch_1">
   <path d="M 0 266.4 
L 648 266.4 
L 648 0 
L 0 0 
z
" style="fill: #ffffff"/>
  </g>
  <g id="axes_1">
   <g id="patch_2">
    <path d="M 3.00024 233.04351 
L 644.99976 233.04351 
L 644.99976 18.118365 
L 3.00024 18.118365 
z
" style="fill: #ffffff"/>
   </g>
   <g id="PathCollection_1">
    <defs>
     <path id="m5ed6d93b10" d="M 0 4.1833 
C 1.109424 4.1833 2.173559 3.742521 2.95804 2.95804 
C 3.742521 2.173559 4.1833 1.109424 4.1833 0 
C 4.1833 -1.109424 3.742521 -2.173559 2.95804 -2.95804 
C 2.173559 -3.742521 1.109424 -4.1833 0 -4.1833 
C -1.109424 -4.1833 -2.173559 -3.742521 -2.95804 -2.95804 
C -3.742521 -2.173559 -4.1833 -1.109424 -4.1833 0 
C -4.1833 1.109424 -3.742521 2.173559 -2.95804 2.95804 
C -2.173559 3.742521 -1.109424 4.1833 0 4.1833 
z
" style="stroke: #000000"/>
    </defs>
    <g clip-path="url(#p810f4b0358)">
     <use xlink:href="#m5ed6d93b10" x="22.164405" y="61.103394" style="stroke: #000000"/>
    </g>
   </g>
   <g id="PathCollection_2">
    <g clip-path="url(#p810f4b0358)">
     <use xlink:href="#m5ed6d93b10" x="22.164405" y="122.510578" style="stroke: #000000"/>
    </g>
   </g>
   <g id="PathCollection_3">
    <g clip-path="url(#p810f4b0358)">
     <use xlink:href="#m5ed6d93b10" x="22.164405" y="183.917763" style="stroke: #000000"/>
    </g>
   </g>
   <g id="patch_3">
    <path d="M 405.4477 233.04351 
L 597.089348 233.04351 
L 597.089348 18.118365 
L 405.4477 18.118365 
z
" clip-path="url(#p810f4b0358)" style="fill: #d62728; opacity: 0.12; stroke: #d62728; stroke-linejoin: miter"/>
   </g>
   <g id="matplotlib.axis_1">
    <g id="xtick_1">
     <g id="line2d_1">
      <defs>
       <path id="mf0a2724b8e" d="M 0 0 
L 0 3.5 
" style="stroke: #000000; stroke-width: 0.8"/>
      </defs>
      <g>
       <use xlink:href="#mf0a2724b8e" x="22.164405" y="233.04351" style="stroke: #000000; stroke-width: 0.8"/>
      </g>
     </g>
     <g id="text_1">
      <text style="font: 10px 'DejaVu Sans', 'Bitstream Vera Sans', 'Computer Modern Sans Serif', 'Lucida Grande', 'Verdana', 'Geneva', 'Lucid', 'Arial', 'Helvetica', 'Avant Garde', sans-serif; text-anchor: middle" x="22.164405" y="247.641948" transform="rotate(-0 22.164405 247.641948)">0.0</text>
     </g>
    </g>
    <g id="xtick_2">
     <g id="line2d_2">
      <g>
       <use xlink:href="#mf0a2724b8e" x="117.985229" y="233.04351" style="stroke: #000000; stroke-width: 0.8"/>
      </g>
     </g>
     <g id="text_2">
      <text style="font: 10px 'DejaVu Sans', 'Bitstream Vera Sans', 'Computer Modern Sans Serif', 'Lucida Grande', 'Verdana', 'Geneva', 'Lucid', 'Arial', 'Helvetica', 'Avant Garde', sans-serif; text-anchor: middle" x="117.985229" y="247.641948" transform="rotate(-0 117.985229 247.641948)">0.5</text>
     </g>
    </g>
    <g id="xtick_3">
     <g id="line2d_3">
      <g>
       <use xlink:href="#mf0a2724b8e" x="213.806053" y="233.04351" style="stroke: #000000; stroke-width: 0.8"/>
      </g>
     </g>
     <g id="text_3">
      <text style="font: 10px 'DejaVu Sans', 'Bitstream Vera Sans', 'Computer Modern Sans Serif', 'Lucida Grande', 'Verdana', 'Geneva', 'Lucid', 'Arial', 'Helvetica', 'Avant Garde', sans-serif; text-anchor: middle" x="213.806053" y="247.641948" transform="rotate(-0 213.806053 247.641948)">1.0</text>
     </g>
    </g>
    <g id="xtick_4">
     <g id="line2d_4">
      <g>
       <use xlink:href="#mf0a2724b8e" x="309.626876" y="233.04351" style="stroke: #000000; stroke-width: 0.8"/>
      </g>
     </g>
     <g id="text_4">
      <text style="font: 10px 'DejaVu Sans', 'Bitstream Vera Sans', 'Computer Modern Sans Serif', 'Lucida Grande', 'Verdana', 'Geneva', 'Lucid', 'Arial', 'Helvetica', 'Avant Garde', sans-serif; text-anchor: middle" x="309.626876" y="247.641948" transform="rotate(-0 309.626876 247.641948)">1.5</text>
     </g>
    </g>
    <g id="xtick_5">
     <g id="line2d_5">
      <g>
       <use xlink:href="#mf0a2724b8e" x="405.4477" y="233.04351" style="stroke: #000000; stroke-width: 0.8"/>
      </g>
     </g>
     <g id="text_5">
      <text style="font: 10px 'DejaVu Sans', 'Bitstream Vera Sans', 'Computer Modern Sans Serif', 'Lucida Grande', 'Verdana', 'Geneva', 'Lucid', 'Arial', 'Helvetica', 'Avant Garde', sans-serif; text-anchor: middle" x="405.4477" y="247.641948" transform="rotate(-0 405.4477 247.641948)">2.0</text>
     </g>
    </g>
    <g id="xtick_6">
     <g id="line2d_6">
      <g>
       <use xlink:href="#mf0a2724b8e" x="501.268524" y="233.04351" style="stroke: #000000; stroke-width: 0.8"/>
      </g>
     </g>
     <g id="text_6">
      <text style="font: 10px 'DejaVu Sans', 'Bitstream Vera Sans', 'Computer Modern Sans Serif', 'Lucida Grande', 'Verdana', 'Geneva', 'Lucid', 'Arial', 'Helvetica', 'Avant Garde', sans-serif; text-anchor: middle" x="501.268524" y="247.641948" transform="rotate(-0 501.268524 247.641948)">2.5</text>
     </g>
    </g>
    <g id="xtick_7">
     <g id="line2d_7">
      <g>
       <use xlink:href="#mf0a2724b8e" x="597.089348" y="233.04351" style="stroke: #000000; stroke-width: 0.8"/>
      </g>
     </g>
     <g id="text_7">
      <text style="font: 10px 'DejaVu Sans', 'Bitstream Vera Sans', 'Computer Modern Sans Serif', 'Lucida Grande', 'Verdana', 'Geneva', 'Lucid', 'Arial', 'Helvetica', 'Avant Garde', sans-serif; text-anchor: middle" x="597.089348" y="247.641948" transform="rotate(-0 597.089348 247.641948)">3.0</text>
     </g>
    </g>
    <g id="text_8">
     <text style="font: 10px 'DejaVu Sans', 'Bitstream Vera Sans', 'Computer Modern Sans Serif', 'Lucida Grande', 'Verdana', 'Geneva', 'Lucid', 'Arial', 'Helvetica', 'Avant Garde', sans-serif; text-anchor: middle" x="324" y="261.320073" transform="rotate(-0 324 261.320073)">x (synthetic input unit)</text>
    </g>
   </g>
   <g id="matplotlib.axis_2"/>
   <g id="line2d_8">
    <path d="M 22.164405 61.103394 
L 405.4477 61.103394 
" clip-path="url(#p810f4b0358)" style="fill: none; stroke: #1f77b4; stroke-width: 8; stroke-linecap: square"/>
   </g>
   <g id="line2d_9">
    <path d="M 22.164405 122.510578 
L 597.089348 122.510578 
" clip-path="url(#p810f4b0358)" style="fill: none; stroke: #ff7f0e; stroke-width: 8; stroke-linecap: square"/>
   </g>
   <g id="line2d_10">
    <path d="M 22.164405 183.917763 
L 405.4477 183.917763 
" clip-path="url(#p810f4b0358)" style="fill: none; stroke: #808080; stroke-width: 8; stroke-linecap: square"/>
   </g>
   <g id="line2d_11">
    <path d="M 501.268524 122.510578 
" clip-path="url(#p810f4b0358)" style="fill: none; stroke: #000000; stroke-width: 1.5; stroke-linecap: square"/>
    <defs>
     <path id="m5cc4c0641e" d="M 0 -6 
L -1.347084 -1.854102 
L -5.706339 -1.854102 
L -2.179628 0.708204 
L -3.526712 4.854102 
L -0 2.291796 
L 3.526712 4.854102 
L 2.179628 0.708204 
L 5.706339 -1.854102 
L 1.347084 -1.854102 
z
" style="stroke: #000000; stroke-linejoin: bevel"/>
    </defs>
    <g clip-path="url(#p810f4b0358)">
     <use xlink:href="#m5cc4c0641e" x="501.268524" y="122.510578" style="stroke: #000000; stroke-linejoin: bevel"/>
    </g>
   </g>
   <g id="patch_4">
    <path d="M 3.00024 233.04351 
L 3.00024 18.118365 
" style="fill: none; stroke: #000000; stroke-width: 0.8; stroke-linejoin: miter; stroke-linecap: square"/>
   </g>
   <g id="patch_5">
    <path d="M 644.99976 233.04351 
L 644.99976 18.118365 
" style="fill: none; stroke: #000000; stroke-width: 0.8; stroke-linejoin: miter; stroke-linecap: square"/>
   </g>
   <g id="patch_6">
    <path d="M 3.00024 233.04351 
L 644.99976 233.04351 
" style="fill: none; stroke: #000000; stroke-width: 0.8; stroke-linejoin: miter; stroke-linecap: square"/>
   </g>
   <g id="patch_7">
    <path d="M 3.00024 18.118365 
L 644.99976 18.118365 
" style="fill: none; stroke: #000000; stroke-width: 0.8; stroke-linejoin: miter; stroke-linecap: square"/>
   </g>
   <g id="text_9">
    <text style="font: 10px 'DejaVu Sans', 'Bitstream Vera Sans', 'Computer Modern Sans Serif', 'Lucida Grande', 'Verdana', 'Geneva', 'Lucid', 'Arial', 'Helvetica', 'Avant Garde', sans-serif; text-anchor: start" x="31.746487" y="50.050101" transform="rotate(-0 31.746487 50.050101)">cell 5 training support [0,2)</text>
   </g>
   <g id="text_10">
    <text style="font: 10px 'DejaVu Sans', 'Bitstream Vera Sans', 'Computer Modern Sans Serif', 'Lucida Grande', 'Verdana', 'Geneva', 'Lucid', 'Arial', 'Helvetica', 'Avant Garde', sans-serif; text-anchor: start" x="31.746487" y="111.457285" transform="rotate(-0 31.746487 111.457285)">cell 13 new support [0,3)</text>
   </g>
   <g id="text_11">
    <text style="font: 10px 'DejaVu Sans', 'Bitstream Vera Sans', 'Computer Modern Sans Serif', 'Lucida Grande', 'Verdana', 'Geneva', 'Lucid', 'Arial', 'Helvetica', 'Avant Garde', sans-serif; text-anchor: start" x="31.746487" y="172.864469" transform="rotate(-0 31.746487 172.864469)">cell 13 x display window [0,2]</text>
   </g>
   <g id="patch_8">
    <path d="M 372.024733 210.796484 
Q 435.820317 167.217981 498.6927 124.270113 
" style="fill: none; stroke: #000000; stroke-linecap: round"/>
    <path d="M 494.704749 124.814393 
L 498.6927 124.270113 
L 496.735353 127.787042 
" style="fill: none; stroke: #000000; stroke-linecap: round"/>
   </g>
   <g id="text_12">
    <text style="font: 9px 'DejaVu Sans', 'Bitstream Vera Sans', 'Computer Modern Sans Serif', 'Lucida Grande', 'Verdana', 'Geneva', 'Lucid', 'Arial', 'Helvetica', 'Avant Garde', sans-serif; text-anchor: start" x="271.298547" y="220.762073" transform="rotate(-0 271.298547 220.762073)">teaching x=2.5 (not saved observation)</text>
   </g>
   <g id="text_13">
    <text style="font: 12px 'DejaVu Sans', 'Bitstream Vera Sans', 'Computer Modern Sans Serif', 'Lucida Grande', 'Verdana', 'Geneva', 'Lucid', 'Arial', 'Helvetica', 'Avant Garde', sans-serif; text-anchor: middle" x="324" y="12.118365" transform="rotate(-0 324 12.118365)">Input support differs from display window; no fitted curve</text>
   </g>
   <g id="PathCollection_4">
    <defs>
     <path id="m80aa21f30a" d="M 0 4.1833 
C 1.109424 4.1833 2.173559 3.742521 2.95804 2.95804 
C 3.742521 2.173559 4.1833 1.109424 4.1833 0 
C 4.1833 -1.109424 3.742521 -2.173559 2.95804 -2.95804 
C 2.173559 -3.742521 1.109424 -4.1833 0 -4.1833 
C -1.109424 -4.1833 -2.173559 -3.742521 -2.95804 -2.95804 
C -3.742521 -2.173559 -4.1833 -1.109424 -4.1833 0 
C -4.1833 1.109424 -3.742521 2.173559 -2.95804 2.95804 
C -2.173559 3.742521 -1.109424 4.1833 0 4.1833 
z
" style="stroke: #000000"/>
    </defs>
    <g clip-path="url(#p810f4b0358)">
     <use xlink:href="#m80aa21f30a" x="405.4477" y="61.103394" style="fill: #ffffff; stroke: #000000"/>
    </g>
   </g>
   <g id="PathCollection_5">
    <g clip-path="url(#p810f4b0358)">
     <use xlink:href="#m80aa21f30a" x="597.089348" y="122.510578" style="fill: #ffffff; stroke: #000000"/>
    </g>
   </g>
   <g id="PathCollection_6">
    <g clip-path="url(#p810f4b0358)">
     <use xlink:href="#m5ed6d93b10" x="405.4477" y="183.917763" style="stroke: #000000"/>
    </g>
   </g>
   <g id="legend_1">
    <g id="patch_9">
     <path d="M 457.80976 36.260865 
L 639.39976 36.260865 
Q 640.99976 36.260865 640.99976 34.660865 
L 640.99976 23.718365 
Q 640.99976 22.118365 639.39976 22.118365 
L 457.80976 22.118365 
Q 456.20976 22.118365 456.20976 23.718365 
L 456.20976 34.660865 
Q 456.20976 36.260865 457.80976 36.260865 
z
" style="fill: #ffffff; opacity: 0.8; stroke: #cccccc; stroke-linejoin: miter"/>
    </g>
    <g id="patch_10">
     <path d="M 459.40976 31.397115 
L 475.40976 31.397115 
L 475.40976 25.797115 
L 459.40976 25.797115 
z
" style="fill: #d62728; opacity: 0.12; stroke: #d62728; stroke-linejoin: miter"/>
    </g>
    <g id="text_14">
     <text style="font: 8px 'DejaVu Sans', 'Bitstream Vera Sans', 'Computer Modern Sans Serif', 'Lucida Grande', 'Verdana', 'Geneva', 'Lucid', 'Arial', 'Helvetica', 'Avant Garde', sans-serif; text-anchor: start" x="481.80976" y="31.397115" transform="rotate(-0 481.80976 31.397115)">new support beyond training / cropped</text>
    </g>
   </g>
  </g>
 </g>
 <defs>
  <clipPath id="p810f4b0358">
   <rect x="3.00024" y="18.118365" width="641.99952" height="214.925145"/>
  </clipPath>
 </defs>
</svg>
