<?xml version="1.0" encoding="UTF-8" standalone="no"?>
<!DOCTYPE svg PUBLIC "-//W3C//DTD SVG 1.1//EN"
 "http://www.w3.org/Graphics/SVG/1.1/DTD/svg11.dtd">
<!-- Generated by graphviz version 16.1.0 (20260904.0139)
 -->
<!-- Title: CityUModel Pages: 1 -->
<svg width="1036pt" height="1330pt"
 viewBox="0.00 0.00 1036.00 1330.00" xmlns="http://www.w3.org/2000/svg" xmlns:xlink="http://www.w3.org/1999/xlink">
<g id="graph0" class="graph" transform="scale(1 1) rotate(0) translate(50.4 1279.4)">
<title>CityUModel</title>
<polygon fill="white" stroke="none" points="-50.4,50.4 -50.4,-1279.4 985.65,-1279.4 985.65,50.4 -50.4,50.4"/>
<text xml:space="preserve" text-anchor="middle" x="467.63" y="-23.5" font-family="Arial" font-size="13.00">RSWS core acquisition model &#45; all attributes</text>
<text xml:space="preserve" text-anchor="middle" x="467.63" y="-7.9" font-family="Arial" font-size="13.00">Baseline transcription redrawn; no new official&#45;source validation. Overview and full attributes share one JSON.</text>
<!-- InventoryType&#45;&gt;Overhead -->
<!-- InventoryType&#45;&gt;Purchase -->
<g id="edge&#45;sf1" class="edge">
<title>InventoryType&#45;&gt;Purchase</title>
<path fill="none" stroke="#52616b" stroke-width="1.3" d="M134.68,-1054.33C201.69,-996.49 305.4,-906.98 377.41,-844.83"/>
<polygon fill="white" stroke="none" points="206.91,-983.09 206.91,-1051.49 302.37,-1051.49 302.37,-983.09 206.91,-983.09"/>
<text xml:space="preserve" text-anchor="start" x="220.79" y="-1034.49" font-family="Arial" font-size="14.00">Stockflow1</text>
<text xml:space="preserve" text-anchor="start" x="209.91" y="-1011.69" font-family="Arial" font-size="14.00">item&#45;qty&#45;purch</text>
<text xml:space="preserve" text-anchor="start" x="212.63" y="-988.89" font-family="Arial" font-size="14.00">item&#45;unit&#45;cost</text>
<polygon fill="white" stroke="none" points="314.2,-875.7 314.2,-898.9 342.21,-898.9 342.21,-875.7 314.2,-875.7"/>
<text xml:space="preserve" text-anchor="start" x="316.2" y="-880.9" font-family="Arial" font-size="16.00">0..*</text>
<polygon fill="white" stroke="none" points="169.88,-1000.26 169.88,-1023.46 197.9,-1023.46 197.9,-1000.26 169.88,-1000.26"/>
<text xml:space="preserve" text-anchor="start" x="171.88" y="-1005.46" font-family="Arial" font-size="16.00">0..*</text>
</g>
<!-- Overhead&#45;&gt;Cash -->
<!-- Overhead&#45;&gt;Purchase -->
<g id="edge&#45;sf2" class="edge">
<title>Overhead&#45;&gt;Purchase</title>
<path fill="none" stroke="#52616b" stroke-width="1.3" d="M134.68,-774.5C201.69,-774.5 305.4,-774.5 377.41,-774.5"/>
<polygon fill="white" stroke="none" points="212.34,-774.5 212.34,-820.1 296.94,-820.1 296.94,-774.5 212.34,-774.5"/>
<text xml:space="preserve" text-anchor="start" x="220.79" y="-803.1" font-family="Arial" font-size="14.00">Stockflow2</text>
<text xml:space="preserve" text-anchor="start" x="215.34" y="-780.3" font-family="Arial" font-size="14.00">oh&#45;qty&#45;purch</text>
<polygon fill="white" stroke="none" points="298.4,-762.9 298.4,-786.1 326.42,-786.1 326.42,-762.9 298.4,-762.9"/>
<text xml:space="preserve" text-anchor="start" x="300.4" y="-768.1" font-family="Arial" font-size="16.00">0..*</text>
<polygon fill="white" stroke="none" points="185.68,-762.9 185.68,-786.1 213.69,-786.1 213.69,-762.9 185.68,-762.9"/>
<text xml:space="preserve" text-anchor="start" x="187.68" y="-768.1" font-family="Arial" font-size="16.00">0..*</text>
</g>
<!-- Cash&#45;&gt;CashDisbursement -->
<g id="edge&#45;sf3" class="edge">
<title>Cash&#45;&gt;CashDisbursement</title>
<path fill="none" stroke="#52616b" stroke-width="1.3" d="M134.68,-456.5C200.82,-456.5 302.72,-456.5 374.59,-456.5"/>
<polygon fill="white" stroke="none" points="217.79,-456.5 217.79,-479.3 291.49,-479.3 291.49,-456.5 217.79,-456.5"/>
<text xml:space="preserve" text-anchor="start" x="220.79" y="-462.3" font-family="Arial" font-size="14.00">Stockflow3</text>
<polygon fill="white" stroke="none" points="295.58,-444.9 295.58,-468.1 323.6,-468.1 323.6,-444.9 295.58,-444.9"/>
<text xml:space="preserve" text-anchor="start" x="297.58" y="-450.1" font-family="Arial" font-size="16.00">0..*</text>
<polygon fill="white" stroke="none" points="184.34,-444.9 184.34,-468.1 215.03,-468.1 215.03,-444.9 184.34,-444.9"/>
<text xml:space="preserve" text-anchor="start" x="186.34" y="-450.1" font-family="Arial" font-size="16.00">1..1</text>
</g>
<!-- Purchase&#45;&gt;CashDisbursement -->
<!-- Purchase&#45;&gt;CashDisbursement -->
<g id="edge&#45;duality" class="edge">
<title>Purchase&#45;&gt;CashDisbursement</title>
<path fill="none" stroke="#52616b" stroke-width="1.3" d="M459.89,-694.28C459.89,-646.08 459.89,-584.95 459.89,-536.74"/>
<polygon fill="white" stroke="none" points="385.17,-592.7 385.17,-638.3 483,-638.3 483,-592.7 385.17,-592.7"/>
<text xml:space="preserve" text-anchor="start" x="412.69" y="-621.3" font-family="Arial" font-size="14.00">Duality</text>
<text xml:space="preserve" text-anchor="start" x="388.17" y="-598.5" font-family="Arial" font-size="14.00">cd&#45;acq&#45;applied</text>
<polygon fill="white" stroke="none" points="429.82,-548.08 429.82,-571.28 457.83,-571.28 457.83,-548.08 429.82,-548.08"/>
<text xml:space="preserve" text-anchor="start" x="431.82" y="-553.28" font-family="Arial" font-size="16.00">0..*</text>
<polygon fill="white" stroke="none" points="461.94,-659.74 461.94,-682.94 489.95,-682.94 489.95,-659.74 461.94,-659.74"/>
<text xml:space="preserve" text-anchor="start" x="463.94" y="-664.94" font-family="Arial" font-size="16.00">0..*</text>
</g>
<!-- Purchase&#45;&gt;PurchaseAgent -->
<g id="edge&#45;p1" class="edge">
<title>Purchase&#45;&gt;PurchaseAgent</title>
<path fill="none" stroke="#52616b" stroke-width="1.3" d="M542.33,-842.7C616.17,-904.53 723.85,-994.7 793.76,-1053.23"/>
<polygon fill="white" stroke="none" points="617.4,-983.09 617.4,-1005.89 721.44,-1005.89 721.44,-983.09 617.4,-983.09"/>
<text xml:space="preserve" text-anchor="start" x="620.4" y="-988.89" font-family="Arial" font-size="14.00">Participation (1)</text>
<polygon fill="white" stroke="none" points="728.58,-999.9 728.58,-1023.1 759.27,-1023.1 759.27,-999.9 728.58,-999.9"/>
<text xml:space="preserve" text-anchor="start" x="730.58" y="-1005.1" font-family="Arial" font-size="16.00">1..1</text>
<polygon fill="white" stroke="none" points="578.16,-872.83 578.16,-896.03 606.17,-896.03 606.17,-872.83 578.16,-872.83"/>
<text xml:space="preserve" text-anchor="start" x="580.16" y="-878.03" font-family="Arial" font-size="16.00">0..*</text>
</g>
<!-- Purchase&#45;&gt;Supplier -->
<g id="edge&#45;p2" class="edge">
<title>Purchase&#45;&gt;Supplier</title>
<path fill="none" stroke="#52616b" stroke-width="1.3" d="M542.33,-774.5C617.9,-774.5 728.9,-774.5 798.59,-774.5"/>
<polygon fill="white" stroke="none" points="624,-774.5 624,-797.3 714.83,-797.3 714.83,-774.5 624,-774.5"/>
<text xml:space="preserve" text-anchor="start" x="627" y="-780.3" font-family="Arial" font-size="14.00">Participation2</text>
<polygon fill="white" stroke="none" points="718.25,-762.9 718.25,-786.1 748.94,-786.1 748.94,-762.9 718.25,-762.9"/>
<text xml:space="preserve" text-anchor="start" x="720.25" y="-768.1" font-family="Arial" font-size="16.00">1..1</text>
<polygon fill="white" stroke="none" points="593.32,-762.9 593.32,-786.1 621.34,-786.1 621.34,-762.9 593.32,-762.9"/>
<text xml:space="preserve" text-anchor="start" x="595.32" y="-768.1" font-family="Arial" font-size="16.00">0..*</text>
</g>
<!-- CashDisbursement&#45;&gt;Supplier -->
<g id="edge&#45;p3" class="edge">
<title>CashDisbursement&#45;&gt;Supplier</title>
<path fill="none" stroke="#52616b" stroke-width="1.3" d="M545.25,-523.16C620.74,-582.81 729.81,-668.98 798.61,-723.35"/>
<polygon fill="white" stroke="none" points="624,-653.33 624,-676.13 714.83,-676.13 714.83,-653.33 624,-653.33"/>
<text xml:space="preserve" text-anchor="start" x="627" y="-659.13" font-family="Arial" font-size="14.00">Participation3</text>
<polygon fill="white" stroke="none" points="732.26,-671.45 732.26,-694.65 762.95,-694.65 762.95,-671.45 732.26,-671.45"/>
<text xml:space="preserve" text-anchor="start" x="734.26" y="-676.65" font-family="Arial" font-size="16.00">0..1</text>
<polygon fill="white" stroke="none" points="582.25,-551.86 582.25,-575.06 610.26,-575.06 610.26,-551.86 582.25,-551.86"/>
<text xml:space="preserve" text-anchor="start" x="584.25" y="-557.06" font-family="Arial" font-size="16.00">0..*</text>
</g>
<!-- CashDisbursement&#45;&gt;APClerk -->
<g id="edge&#45;p4" class="edge">
<title>CashDisbursement&#45;&gt;APClerk</title>
<path fill="none" stroke="#52616b" stroke-width="1.3" d="M545.25,-452.52C621.55,-448.92 732.14,-443.69 800.8,-440.45"/>
<polygon fill="white" stroke="none" points="624,-448.7 624,-471.5 714.83,-471.5 714.83,-448.7 624,-448.7"/>
<text xml:space="preserve" text-anchor="start" x="627" y="-454.5" font-family="Arial" font-size="14.00">Participation4</text>
<polygon fill="white" stroke="none" points="720.53,-431.92 720.53,-455.12 751.21,-455.12 751.21,-431.92 720.53,-431.92"/>
<text xml:space="preserve" text-anchor="start" x="722.53" y="-437.12" font-family="Arial" font-size="16.00">1..1</text>
<polygon fill="white" stroke="none" points="596.17,-437.85 596.17,-461.05 624.19,-461.05 624.19,-437.85 596.17,-437.85"/>
<text xml:space="preserve" text-anchor="start" x="598.17" y="-443.05" font-family="Arial" font-size="16.00">0..*</text>
</g>
<!-- CashDisbursement&#45;&gt;Manager -->
<g id="edge&#45;p5" class="edge">
<title>CashDisbursement&#45;&gt;Manager</title>
<path fill="none" stroke="#52616b" stroke-width="1.3" d="M545.25,-385.85C621.55,-321.97 732.14,-229.36 800.8,-171.87"/>
<polygon fill="white" stroke="none" points="624,-318.18 624,-340.98 714.83,-340.98 714.83,-318.18 624,-318.18"/>
<text xml:space="preserve" text-anchor="start" x="627" y="-323.98" font-family="Arial" font-size="14.00">Participation5</text>
<polygon fill="white" stroke="none" points="735.62,-202 735.62,-225.2 766.3,-225.2 766.3,-202 735.62,-202"/>
<text xml:space="preserve" text-anchor="start" x="737.62" y="-207.2" font-family="Arial" font-size="16.00">1..1</text>
<polygon fill="white" stroke="none" points="581.08,-332.52 581.08,-355.72 609.1,-355.72 609.1,-332.52 581.08,-332.52"/>
<text xml:space="preserve" text-anchor="start" x="583.08" y="-337.72" font-family="Arial" font-size="16.00">0..*</text>
</g>
<!-- PurchaseAgent&#45;&gt;Supplier -->
<!-- Supplier&#45;&gt;APClerk -->
<!-- APClerk&#45;&gt;Manager -->
<!-- InventoryType -->
<g id="node&#45;InventoryType" class="node">
<title>InventoryType</title>
<polygon fill="none" stroke="#52616b" points="0,-994 0,-1229 134.91,-1229 134.91,-994 0,-994"/>
<polygon fill="#f1f3f5" stroke="none" points="1,-1181 1,-1228 133.91,-1228 133.91,-1181 1,-1181"/>
<text xml:space="preserve" text-anchor="start" x="10" y="-1208.3" font-family="Arial" font-size="13.00">&lt;&lt;ResourceType&gt;&gt;</text>
<text xml:space="preserve" text-anchor="start" x="10.55" y="-1192.6" font-family="Arial" font-weight="bold" font-size="16.00">Inventory Type</text>
<text xml:space="preserve" text-anchor="start" x="10" y="-1156" font-family="Arial" font-size="16.00">Item&#45;id (PK)</text>
<text xml:space="preserve" text-anchor="start" x="10" y="-1118.8" font-family="Arial" font-size="16.00">Item&#45;desc</text>
<text xml:space="preserve" text-anchor="start" x="10" y="-1081.6" font-family="Arial" font-size="16.00">Item&#45;std&#45;cost</text>
<text xml:space="preserve" text-anchor="start" x="10" y="-1044.4" font-family="Arial" font-size="16.00">Item&#45;list&#45;price</text>
<text xml:space="preserve" text-anchor="start" x="10" y="-1007.2" font-family="Arial" font-size="16.00">Item&#45;qoh</text>
</g>
<!-- Overhead -->
<g id="node&#45;Overhead" class="node">
<title>Overhead</title>
<polygon fill="none" stroke="#52616b" points="0,-712.8 0,-836.2 134.91,-836.2 134.91,-712.8 0,-712.8"/>
<polygon fill="#f1f3f5" stroke="none" points="1,-788.2 1,-835.2 133.91,-835.2 133.91,-788.2 1,-788.2"/>
<text xml:space="preserve" text-anchor="start" x="10" y="-815.5" font-family="Arial" font-size="13.00">&lt;&lt;ResourceType&gt;&gt;</text>
<text xml:space="preserve" text-anchor="start" x="30.55" y="-799.8" font-family="Arial" font-weight="bold" font-size="16.00">Overhead</text>
<text xml:space="preserve" text-anchor="start" x="10" y="-763.2" font-family="Arial" font-size="16.00">OH&#45;id (PK)</text>
<text xml:space="preserve" text-anchor="start" x="10" y="-726" font-family="Arial" font-size="16.00">OH&#45;desc</text>
</g>
<!-- Cash -->
<g id="node&#45;Cash" class="node">
<title>Cash</title>
<polygon fill="none" stroke="#52616b" points="0,-357.6 0,-555.4 134.91,-555.4 134.91,-357.6 0,-357.6"/>
<polygon fill="#f1f3f5" stroke="none" points="1,-507.4 1,-554.4 133.91,-554.4 133.91,-507.4 1,-507.4"/>
<text xml:space="preserve" text-anchor="start" x="10" y="-534.7" font-family="Arial" font-size="13.00">&lt;&lt;ResourceType&gt;&gt;</text>
<text xml:space="preserve" text-anchor="start" x="47.89" y="-519" font-family="Arial" font-weight="bold" font-size="16.00">Cash</text>
<text xml:space="preserve" text-anchor="start" x="10" y="-482.4" font-family="Arial" font-size="16.00">AcctNum (PK)</text>
<text xml:space="preserve" text-anchor="start" x="10" y="-445.2" font-family="Arial" font-size="16.00">AcctType</text>
<text xml:space="preserve" text-anchor="start" x="10" y="-408" font-family="Arial" font-size="16.00">AcctLoc</text>
<text xml:space="preserve" text-anchor="start" x="10" y="-370.8" font-family="Arial" font-size="16.00">AcctBal</text>
</g>
<!-- Purchase -->
<g id="node&#45;Purchase" class="node">
<title>Purchase</title>
<polygon fill="none" stroke="#52616b" points="377.26,-694.2 377.26,-854.8 542.51,-854.8 542.51,-694.2 377.26,-694.2"/>
<polygon fill="#e8f5ed" stroke="none" points="378.26,-806.8 378.26,-853.8 541.51,-853.8 541.51,-806.8 378.26,-806.8"/>
<text xml:space="preserve" text-anchor="start" x="387.26" y="-834.1" font-family="Arial" font-size="13.00">&lt;&lt;EconomicIncrement&gt;&gt;</text>
<text xml:space="preserve" text-anchor="start" x="423.87" y="-818.4" font-family="Arial" font-weight="bold" font-size="16.00">Purchase</text>
<text xml:space="preserve" text-anchor="start" x="387.26" y="-781.8" font-family="Arial" font-size="16.00">Acq&#45;ID (PK)</text>
<text xml:space="preserve" text-anchor="start" x="387.26" y="-744.6" font-family="Arial" font-size="16.00">Acq&#45;date</text>
<text xml:space="preserve" text-anchor="start" x="387.26" y="-707.4" font-family="Arial" font-size="16.00">Acq&#45;amt</text>
</g>
<!-- CashDisbursement -->
<g id="node&#45;CashDisbursement" class="node">
<title>CashDisbursement</title>
<polygon fill="none" stroke="#52616b" points="374.37,-376.2 374.37,-536.8 545.4,-536.8 545.4,-376.2 374.37,-376.2"/>
<polygon fill="#fff2dc" stroke="none" points="375.37,-488.8 375.37,-535.8 544.4,-535.8 544.4,-488.8 375.37,-488.8"/>
<text xml:space="preserve" text-anchor="start" x="384.37" y="-516.1" font-family="Arial" font-size="13.00">&lt;&lt;EconomicDecrement&gt;&gt;</text>
<text xml:space="preserve" text-anchor="start" x="384.75" y="-500.4" font-family="Arial" font-weight="bold" font-size="16.00">Cash Disbursement</text>
<text xml:space="preserve" text-anchor="start" x="384.37" y="-463.8" font-family="Arial" font-size="16.00">CD&#45;id (PK)</text>
<text xml:space="preserve" text-anchor="start" x="384.37" y="-426.6" font-family="Arial" font-size="16.00">CD&#45;date</text>
<text xml:space="preserve" text-anchor="start" x="384.37" y="-389.4" font-family="Arial" font-size="16.00">CD&#45;amt</text>
</g>
<!-- PurchaseAgent -->
<g id="node&#45;PurchaseAgent" class="node">
<title>PurchaseAgent</title>
<polygon fill="none" stroke="#52616b" points="793.44,-1031.2 793.44,-1191.8 935.25,-1191.8 935.25,-1031.2 793.44,-1031.2"/>
<polygon fill="#f3eefb" stroke="none" points="794.44,-1143.8 794.44,-1190.8 934.25,-1190.8 934.25,-1143.8 794.44,-1143.8"/>
<text xml:space="preserve" text-anchor="start" x="810.49" y="-1171.1" font-family="Arial" font-size="13.00">&lt;&lt;InternalAgent&gt;&gt;</text>
<text xml:space="preserve" text-anchor="start" x="803.44" y="-1155.4" font-family="Arial" font-weight="bold" font-size="16.00">Purchase Agent</text>
<text xml:space="preserve" text-anchor="start" x="803.44" y="-1118.8" font-family="Arial" font-size="16.00">PA&#45;id (PK)</text>
<text xml:space="preserve" text-anchor="start" x="803.44" y="-1081.6" font-family="Arial" font-size="16.00">PA&#45;name</text>
<text xml:space="preserve" text-anchor="start" x="803.44" y="-1044.4" font-family="Arial" font-size="16.00">PA&#45;limit</text>
</g>
<!-- Supplier -->
<g id="node&#45;Supplier" class="node">
<title>Supplier</title>
<polygon fill="none" stroke="#52616b" points="798.33,-675.6 798.33,-873.4 930.36,-873.4 930.36,-675.6 798.33,-675.6"/>
<polygon fill="#f1f3f5" stroke="none" points="799.33,-825.4 799.33,-872.4 929.36,-872.4 929.36,-825.4 799.33,-825.4"/>
<text xml:space="preserve" text-anchor="start" x="808.33" y="-852.7" font-family="Arial" font-size="13.00">&lt;&lt;ExternalAgent&gt;&gt;</text>
<text xml:space="preserve" text-anchor="start" x="832.34" y="-837" font-family="Arial" font-weight="bold" font-size="16.00">Supplier</text>
<text xml:space="preserve" text-anchor="start" x="808.33" y="-800.4" font-family="Arial" font-size="16.00">SupNum (PK)</text>
<text xml:space="preserve" text-anchor="start" x="808.33" y="-763.2" font-family="Arial" font-size="16.00">Sup&#45;name</text>
<text xml:space="preserve" text-anchor="start" x="808.33" y="-726" font-family="Arial" font-size="16.00">Sup&#45;add</text>
<text xml:space="preserve" text-anchor="start" x="808.33" y="-688.8" font-family="Arial" font-size="16.00">Sup&#45;rating</text>
</g>
<!-- APClerk -->
<g id="node&#45;APClerk" class="node">
<title>APClerk</title>
<polygon fill="none" stroke="#52616b" points="800.49,-357.2 800.49,-517.8 928.2,-517.8 928.2,-357.2 800.49,-357.2"/>
<polygon fill="#f3eefb" stroke="none" points="801.49,-469.8 801.49,-516.8 927.2,-516.8 927.2,-469.8 801.49,-469.8"/>
<text xml:space="preserve" text-anchor="start" x="810.49" y="-497.1" font-family="Arial" font-size="13.00">&lt;&lt;InternalAgent&gt;&gt;</text>
<text xml:space="preserve" text-anchor="start" x="828.77" y="-481.4" font-family="Arial" font-weight="bold" font-size="16.00">A/P Clerk</text>
<text xml:space="preserve" text-anchor="start" x="810.49" y="-444.8" font-family="Arial" font-size="16.00">AP&#45;id (PK)</text>
<text xml:space="preserve" text-anchor="start" x="810.49" y="-407.6" font-family="Arial" font-size="16.00">AP&#45;name</text>
<text xml:space="preserve" text-anchor="start" x="810.49" y="-370.4" font-family="Arial" font-size="16.00">AP&#45;bond</text>
</g>
<!-- Manager -->
<g id="node&#45;Manager" class="node">
<title>Manager</title>
<polygon fill="none" stroke="#52616b" points="800.49,-39.2 800.49,-199.8 928.2,-199.8 928.2,-39.2 800.49,-39.2"/>
<polygon fill="#f3eefb" stroke="none" points="801.49,-151.8 801.49,-198.8 927.2,-198.8 927.2,-151.8 801.49,-151.8"/>
<text xml:space="preserve" text-anchor="start" x="810.49" y="-179.1" font-family="Arial" font-size="13.00">&lt;&lt;InternalAgent&gt;&gt;</text>
<text xml:space="preserve" text-anchor="start" x="831.45" y="-163.4" font-family="Arial" font-weight="bold" font-size="16.00">Manager</text>
<text xml:space="preserve" text-anchor="start" x="810.49" y="-126.8" font-family="Arial" font-size="16.00">Mgr&#45;id (PK)</text>
<text xml:space="preserve" text-anchor="start" x="810.49" y="-89.6" font-family="Arial" font-size="16.00">Mgr&#45;name</text>
<text xml:space="preserve" text-anchor="start" x="810.49" y="-52.4" font-family="Arial" font-size="16.00">Mgr&#45;degree</text>
</g>
</g>
</svg>
